<svg width="185" height="52" viewBox="0 0 185 52" fill="none" xmlns="http://www.w3.org/2000/svg">
<path d="M177.667 1.02652C180.837 1.02652 183.407 3.43883 183.407 6.41573V44.9101C183.407 47.887 180.837 50.2993 177.667 50.2993H6.83333C3.66266 50.2993 1.09333 47.887 1.09333 44.9101V6.41573C1.09333 3.43883 3.66266 1.02652 6.83333 1.02652H177.667ZM177.667 0H6.83333C3.075 0 0 2.88708 0 6.41573V44.9101C0 48.4388 3.075 51.3258 6.83333 51.3258H177.667C181.425 51.3258 184.5 48.4388 184.5 44.9101V6.41573C184.5 2.88708 181.425 0 177.667 0Z" fill="white"/>
<path d="M64.8074 13.1401C64.8074 14.218 64.4657 15.0777 63.7824 15.7064C63.017 16.4635 62.0057 16.8484 60.7757 16.8484C59.5867 16.8484 58.589 16.4635 57.7554 15.6936C56.9217 14.9237 56.5117 13.9613 56.5117 12.8322C56.5117 11.6902 56.9217 10.7406 57.7554 9.97075C58.589 9.20086 59.5867 8.81592 60.7757 8.81592C61.3634 8.81592 61.9237 8.91857 62.4567 9.1367C62.9897 9.35484 63.4134 9.63713 63.7414 9.99641L63.017 10.6765C62.4704 10.0734 61.7324 9.76545 60.7757 9.76545C59.9147 9.76545 59.1631 10.0477 58.5344 10.6252C57.9057 11.1897 57.5914 11.934 57.5914 12.845C57.5914 13.756 57.9057 14.5003 58.5344 15.0648C59.1631 15.6294 59.9147 15.9246 60.7757 15.9246C61.6914 15.9246 62.4567 15.6423 63.0717 15.0648C63.468 14.6927 63.7004 14.1666 63.755 13.4994H60.7757V12.5627H64.7527C64.78 12.768 64.8074 12.9605 64.8074 13.1401Z" fill="white" stroke="white" stroke-width="0.256629" stroke-miterlimit="10"/>
<path d="M71.1074 9.93244H67.3763V12.3704H70.7384V13.2943H67.3763V15.7323H71.1074V16.6818H66.324V8.98291H71.1074V9.93244Z" fill="white" stroke="white" stroke-width="0.256629" stroke-miterlimit="10"/>
<path d="M75.5488 16.6818H74.4964V9.93244H72.2004V8.98291H77.8311V9.93244H75.5351V16.6818H75.5488Z" fill="white" stroke="white" stroke-width="0.256629" stroke-miterlimit="10"/>
<path d="M81.9172 16.6818V8.98291H82.9695V16.6818H81.9172Z" fill="white" stroke="white" stroke-width="0.256629" stroke-miterlimit="10"/>
<path d="M87.6445 16.6818H86.5921V9.93244H84.2961V8.98291H89.9268V9.93244H87.6308V16.6818H87.6445Z" fill="white" stroke="white" stroke-width="0.256629" stroke-miterlimit="10"/>
<path d="M100.6 15.6803C99.7934 16.463 98.7957 16.8479 97.5931 16.8479C96.3904 16.8479 95.3928 16.463 94.5864 15.6803C93.7801 14.8976 93.3838 13.948 93.3838 12.8317C93.3838 11.7153 93.7801 10.753 94.5864 9.98309C95.3928 9.20037 96.3904 8.81543 97.5931 8.81543C98.7821 8.81543 99.7797 9.20037 100.6 9.98309C101.406 10.7658 101.816 11.7153 101.816 12.8317C101.802 13.9609 101.406 14.9104 100.6 15.6803ZM95.3654 15.0387C95.9668 15.6161 96.7184 15.8984 97.5931 15.8984C98.4677 15.8984 99.2194 15.6161 99.8207 15.0387C100.422 14.4613 100.736 13.7299 100.736 12.8317C100.736 11.9335 100.436 11.2021 99.8207 10.6247C99.2194 10.0473 98.4677 9.75213 97.5931 9.75213C96.7184 9.75213 95.9668 10.0344 95.3654 10.6118C94.7641 11.2021 94.4498 11.9335 94.4498 12.8317C94.4498 13.7299 94.7641 14.4613 95.3654 15.0387Z" fill="white" stroke="white" stroke-width="0.256629" stroke-miterlimit="10"/>
<path d="M103.293 16.6818V8.98291H104.577L108.568 14.9752H108.609L108.568 13.4868V8.98291H109.62V16.6818H108.527L104.359 10.4072H104.318L104.359 11.8957V16.6818H103.293Z" fill="white" stroke="white" stroke-width="0.256629" stroke-miterlimit="10"/>
<path d="M93.1247 27.9082C89.913 27.9082 87.289 30.2051 87.289 33.3616C87.289 36.5053 89.913 38.815 93.1247 38.815C96.3363 38.815 98.9603 36.5053 98.9603 33.3616C98.9603 30.2051 96.3363 27.9082 93.1247 27.9082ZM93.1247 36.6721C91.3617 36.6721 89.8447 35.312 89.8447 33.3616C89.8447 31.3984 91.3617 30.0511 93.1247 30.0511C94.8877 30.0511 96.4047 31.3984 96.4047 33.3616C96.4047 35.312 94.874 36.6721 93.1247 36.6721ZM80.3874 27.9082C77.1757 27.9082 74.5517 30.2051 74.5517 33.3616C74.5517 36.5053 77.1757 38.815 80.3874 38.815C83.599 38.815 86.223 36.5053 86.223 33.3616C86.223 30.2051 83.599 27.9082 80.3874 27.9082ZM80.3874 36.6721C78.6244 36.6721 77.1074 35.312 77.1074 33.3616C77.1074 31.3984 78.6244 30.0511 80.3874 30.0511C82.1504 30.0511 83.6674 31.3984 83.6674 33.3616C83.6674 35.312 82.1504 36.6721 80.3874 36.6721ZM65.2448 29.5892V31.8988H71.1488C70.9711 33.1948 70.5064 34.1572 69.8094 34.8116C68.9484 35.62 67.6091 36.5053 65.2584 36.5053C61.6231 36.5053 58.7805 33.7594 58.7805 30.3462C58.7805 26.933 61.6231 24.1871 65.2584 24.1871C67.2128 24.1871 68.6478 24.9057 69.7001 25.8424L71.4358 24.2128C69.9598 22.8911 68.0054 21.8774 65.2448 21.8774C60.2701 21.8774 56.0881 25.6756 56.0881 30.3591C56.0881 35.0297 60.2701 38.8407 65.2448 38.8407C67.9371 38.8407 69.9598 38.0194 71.5451 36.4668C73.1714 34.9399 73.6771 32.7842 73.6771 31.052C73.6771 30.513 73.6361 30.0126 73.5404 29.602H65.2448V29.5892ZM127.168 31.3856C126.69 30.1666 125.214 27.9082 122.194 27.9082C119.201 27.9082 116.713 30.1153 116.713 33.3616C116.713 36.4155 119.173 38.815 122.481 38.815C125.146 38.815 126.69 37.2881 127.319 36.4027L125.337 35.158C124.681 36.0691 123.779 36.6721 122.481 36.6721C121.182 36.6721 120.253 36.1076 119.665 35.0169L127.442 32.0015L127.168 31.3856ZM119.242 33.2076C119.173 31.1033 120.977 30.0254 122.276 30.0254C123.287 30.0254 124.148 30.5002 124.435 31.1803L119.242 33.2076ZM112.928 38.4942H115.483V22.4549H112.928V38.4942ZM108.746 29.1272H108.65C108.076 28.4857 106.983 27.9082 105.589 27.9082C102.678 27.9082 100.013 30.3077 100.013 33.3873C100.013 36.4412 102.678 38.8278 105.589 38.8278C106.969 38.8278 108.076 38.2504 108.65 37.5832H108.732V38.3659C108.732 40.4574 107.543 41.5738 105.63 41.5738C104.072 41.5738 103.101 40.5216 102.705 39.6362L100.477 40.5088C101.12 41.9587 102.814 43.7295 105.63 43.7295C108.623 43.7295 111.151 42.0742 111.151 38.0451V28.2419H108.732V29.1272H108.746ZM105.807 36.6721C104.044 36.6721 102.568 35.2863 102.568 33.3873C102.568 31.4626 104.044 30.0639 105.807 30.0639C107.543 30.0639 108.91 31.4754 108.91 33.3873C108.923 35.2863 107.557 36.6721 105.807 36.6721ZM139.14 22.4549H133.031V38.4942H135.587V32.4121H139.154C141.983 32.4121 144.757 30.4874 144.757 27.4335C144.757 24.3796 141.956 22.4549 139.14 22.4549ZM139.195 30.1794H135.573V24.6747H139.195C141.108 24.6747 142.188 26.1632 142.188 27.4206C142.188 28.6781 141.108 30.1794 139.195 30.1794ZM154.966 27.8826C153.121 27.8826 151.208 28.6525 150.415 30.3334L152.684 31.2188C153.162 30.3334 154.064 30.0383 155.007 30.0383C156.333 30.0383 157.672 30.7825 157.686 32.1041V32.2709C157.221 32.0271 156.237 31.655 155.021 31.655C152.575 31.655 150.101 32.9125 150.101 35.2607C150.101 37.4035 152.096 38.7893 154.337 38.7893C156.046 38.7893 157.002 38.0708 157.59 37.2239H157.672V38.4685H160.132V32.3223C160.146 29.4737 157.877 27.8826 154.966 27.8826ZM154.652 36.6721C153.818 36.6721 152.656 36.2744 152.656 35.312C152.656 34.0802 154.105 33.6054 155.362 33.6054C156.483 33.6054 157.016 33.8364 157.686 34.1443C157.494 35.62 156.128 36.6721 154.652 36.6721ZM169.111 28.229L166.186 35.1837H166.104L163.07 28.229H160.323L164.874 37.9553L162.278 43.3573H164.943L171.954 28.229H169.111ZM146.151 38.4942H148.707V22.4549H146.151V38.4942Z" fill="white"/>
<path d="M14.2681 9.67478C13.8717 10.0726 13.6394 10.6885 13.6394 11.4712V39.8544C13.6394 40.65 13.8717 41.2659 14.2681 41.6509L14.3637 41.7407L31.2968 25.8553V25.6628V25.4703L14.3637 9.58496L14.2681 9.67478Z" fill="url(#paint0_linear_479_2314)"/>
<path d="M36.943 31.1547L31.2986 25.8553V25.6628V25.4703L36.943 20.1709L37.066 20.2351L43.749 23.8022C45.6624 24.8159 45.6624 26.484 43.749 27.5105L37.066 31.0777L36.943 31.1547Z" fill="url(#paint1_linear_479_2314)"/>
<path d="M37.0652 31.0908L31.2979 25.6631L14.2693 41.6511C14.898 42.2798 15.9366 42.3568 17.1119 41.7281L37.0652 31.0908Z" fill="url(#paint2_linear_479_2314)"/>
<path d="M37.0646 20.248L17.0978 9.59791C15.9224 8.96917 14.8838 9.04616 14.2551 9.6749L31.2973 25.6629L37.0646 20.248Z" fill="url(#paint3_linear_479_2314)"/>
<path opacity="0.2" d="M36.941 30.9624L17.0971 41.5484C15.9901 42.1386 14.9924 42.1001 14.3637 41.5612L14.2681 41.651L14.3637 41.7408C15.0061 42.2797 15.9901 42.3182 17.0971 41.728L37.064 31.0779L36.941 30.9624Z" fill="black"/>
<path opacity="0.12" d="M14.2669 41.4712C13.8705 41.0734 13.6382 40.4575 13.6382 39.6748V39.8673C13.6382 40.6628 13.8705 41.2787 14.2669 41.6637L14.3626 41.5738L14.2669 41.4712Z" fill="black"/>
<path opacity="0.12" d="M43.7484 27.3312L36.9287 30.9624L37.0517 31.0779L43.7347 27.5108C44.6914 26.9975 45.1697 26.3303 45.1697 25.6631C45.1014 26.2662 44.623 26.8692 43.7484 27.3312Z" fill="black"/>
<path opacity="0.25" d="M17.0978 9.77855L43.7479 23.9958C44.6089 24.4577 45.1009 25.048 45.1829 25.6639C45.1829 24.9967 44.7046 24.3166 43.7479 23.8162L17.0978 9.59891C15.1845 8.58522 13.6265 9.4321 13.6265 11.4851V11.6776C13.6265 9.61174 15.1981 8.76486 17.0978 9.77855Z" fill="white"/>
<defs>
<linearGradient id="paint0_linear_479_2314" x1="29.7929" y1="11.1758" x2="8.3013" y2="34.0663" gradientUnits="userSpaceOnUse">
<stop stop-color="#00A0FF"/>
<stop offset="0.00657445" stop-color="#00A1FF"/>
<stop offset="0.2601" stop-color="#00BEFF"/>
<stop offset="0.5122" stop-color="#00D2FF"/>
<stop offset="0.7604" stop-color="#00DFFF"/>
<stop offset="1" stop-color="#00E3FF"/>
</linearGradient>
<linearGradient id="paint1_linear_479_2314" x1="46.2423" y1="25.6647" x2="13.1729" y2="25.6647" gradientUnits="userSpaceOnUse">
<stop stop-color="#FFE000"/>
<stop offset="0.4087" stop-color="#FFBD00"/>
<stop offset="0.7754" stop-color="#FFA500"/>
<stop offset="1" stop-color="#FF9C00"/>
</linearGradient>
<linearGradient id="paint2_linear_479_2314" x1="33.9313" y1="28.6094" x2="4.78699" y2="59.6506" gradientUnits="userSpaceOnUse">
<stop stop-color="#FF3A44"/>
<stop offset="1" stop-color="#C31162"/>
</linearGradient>
<linearGradient id="paint3_linear_479_2314" x1="9.97366" y1="0.226189" x2="22.9879" y2="14.0873" gradientUnits="userSpaceOnUse">
<stop stop-color="#32A071"/>
<stop offset="0.0685" stop-color="#2DA771"/>
<stop offset="0.4762" stop-color="#15CF74"/>
<stop offset="0.8009" stop-color="#06E775"/>
<stop offset="1" stop-color="#00F076"/>
</linearGradient>
</defs>
</svg>
